<svg width="79" height="95" viewBox="0 0 79 95" fill="none" xmlns="http://www.w3.org/2000/svg">
<ellipse cx="37.5441" cy="58" rx="37.5441" ry="37" fill="#46A358" fill-opacity="0.13"/>
<g clip-path="url(#clip0_0_1)">
<path d="M28.543 46.3569C41.3009 48.0205 54.177 48.282 66.994 47.1369C67.8631 47.0602 67.8722 45.7077 66.994 45.7844C54.177 46.9295 41.3009 46.668 28.543 45.0044C27.6785 44.8917 27.6831 46.2487 28.543 46.3569Z" fill="#727272"/>
<path d="M31.4868 92.0307C37.0012 92.725 42.5521 93.0631 48.112 92.9865C53.0031 92.9189 58.7769 93.1308 63.3632 91.2237C64.1594 90.8901 63.8091 89.5827 62.9992 89.9208C58.2946 91.8775 52.2661 91.6115 47.2339 91.643C41.9651 91.6791 36.71 91.3365 31.4822 90.6782C30.6177 90.57 30.6223 91.9225 31.4868 92.0307Z" fill="#727272"/>
<path d="M28.0106 45.3155C21.6454 51.1673 18.6788 59.8909 19.3795 68.3981C19.739 72.7937 20.9947 77.0675 22.8829 81.0529C24.6028 84.6866 27.1371 89.8937 30.9408 91.7827C31.7233 92.1704 32.4149 91.0072 31.6278 90.615C28.088 88.8568 25.6811 83.7939 24.0613 80.3721C22.1777 76.3823 20.9447 72.0498 20.6899 67.6452C20.2349 59.706 23.0467 51.7218 28.9798 46.2713C29.6258 45.6807 28.6567 44.7249 28.0106 45.3155Z" fill="#727272"/>
<path d="M66.5117 46.9522C73.2273 51.1223 73.8598 60.1164 73.696 67.199C73.514 75.0975 72.5267 87.6126 62.9992 89.9209C62.1484 90.1283 62.5078 91.4312 63.3632 91.2238C73.3092 88.8163 74.7379 76.3959 75.0382 68.0375C75.3157 60.2156 74.6151 50.3875 67.1988 45.7845C66.4526 45.3247 65.7701 46.4923 66.5117 46.9522Z" fill="#727272"/>
<path d="M33.0564 46.366C28.047 51.7084 25.8358 60.6303 26.682 67.785C27.1734 71.9462 28.502 76.0758 29.4893 80.1378C30.4812 84.2088 31.5049 88.2483 33.7526 91.8414C34.2166 92.5807 35.3951 91.9 34.931 91.1606C32.8198 87.7884 31.8371 84.0195 30.9043 80.2009C30.0035 76.5221 28.9524 72.8388 28.2563 69.1195C26.9368 62.0369 29.0025 52.6777 34.021 47.3218C34.617 46.6816 33.6525 45.7259 33.0564 46.366Z" fill="#727272"/>
<path d="M39.8176 46.9295C36.0867 53.4395 34.1257 60.8331 34.2258 68.3259C34.2758 71.9235 34.7945 75.5257 35.7864 78.9881C37.0194 83.2845 38.8939 87.36 39.7129 91.7736C39.8722 92.6302 41.1871 92.265 41.0278 91.413C40.3135 87.5493 38.7984 83.9517 37.5927 80.2278C36.4233 76.6122 35.7227 72.8838 35.6044 69.0833C35.3678 61.5679 37.2514 54.1427 40.996 47.6102C41.4328 46.8528 40.2543 46.1721 39.8176 46.9295Z" fill="#727272"/>
<path d="M43.8397 48.2234C45.1364 55.7343 43.5622 63.2586 43.6941 70.8011C43.7532 74.2454 44.5313 77.4508 44.9863 80.8411C45.4595 84.3621 44.6496 87.9822 44.2082 91.4762C44.099 92.3373 45.464 92.3282 45.5732 91.4762C46.0191 87.9507 46.8244 84.3034 46.3512 80.7509C45.8689 77.1172 45.0545 73.6728 45.05 69.976C45.0409 62.5779 46.424 55.2339 45.1546 47.8673C45.0045 47.0107 43.6895 47.3714 43.8397 48.2234Z" fill="#727272"/>
<path d="M48.9583 47.5968C51.3561 54.3818 51.6473 61.541 51.8884 68.6596C52.1523 76.3914 51.761 84.0014 50.3051 91.6114C50.1413 92.4635 51.4562 92.8287 51.62 91.9721C53.0987 84.2448 53.5219 76.5086 53.2534 68.6596C53.0077 61.4238 52.7074 54.1293 50.2732 47.2361C49.9866 46.4246 48.6671 46.7762 48.9583 47.5968Z" fill="#727272"/>
<path d="M54.7002 47.6284C55.2053 49.1567 56.2973 50.1756 57.1344 51.519C58.0899 53.0519 58.6131 54.7876 58.8952 56.5548C59.5095 60.4139 59.2183 64.4534 59.2092 68.3441C59.2001 72.5774 59.5277 77.0541 58.422 81.1882C57.4484 84.8174 55.2144 87.9462 54.4682 91.652C54.2953 92.5041 55.6102 92.8648 55.7831 92.0127C56.5839 88.0454 59.059 84.6867 59.9326 80.7374C60.8289 76.698 60.565 72.4511 60.5741 68.3441C60.5832 64.5481 60.8153 60.6664 60.3102 56.8929C60.0873 55.2249 59.7051 53.5748 58.9771 52.051C58.1673 50.3514 56.6066 49.0575 56.0197 47.2722C55.7422 46.4472 54.4227 46.7988 54.7002 47.6284Z" fill="#727272"/>
<path d="M61.3385 47.4163C64.0502 49.941 65.356 53.9714 66.3343 57.4518C67.3534 61.0765 67.0122 64.9447 66.7847 68.655C66.3252 76.1839 65.0421 83.7038 61.3976 90.4121C60.9791 91.1785 62.1575 91.8638 62.5761 91.0929C66.4617 83.9382 67.7584 75.8954 68.1906 67.8706C68.409 63.8311 68.5865 59.8863 67.3079 55.9957C66.1978 52.6189 64.9739 48.9492 62.3031 46.4561C61.6661 45.8655 60.697 46.8212 61.3385 47.4163Z" fill="#727272"/>
<path d="M32.9473 50.7977C32.8062 51.1538 32.6515 51.5055 32.4832 51.8526C32.2694 52.2899 32.5196 52.8895 33.0747 52.8715C33.4705 52.858 33.7845 52.6822 34.0666 52.4162C34.1576 52.3305 34.2486 52.2403 34.335 52.1547C34.4488 52.042 34.2986 52.2223 34.3851 52.1186C34.3669 52.1457 34.2713 52.1367 34.3578 52.1457C34.1394 51.8616 33.921 51.5731 33.698 51.2891C33.6389 51.5911 33.5752 51.8932 33.516 52.1998C33.4432 52.5559 33.6207 52.9301 33.9938 53.0338C34.3305 53.124 34.7627 52.9211 34.8355 52.5604C34.8946 52.2584 34.9583 51.9563 35.0175 51.6498C35.1085 51.1899 34.8218 50.8383 34.3578 50.7932C33.9801 50.7571 33.6389 50.9555 33.3704 51.1989C33.2749 51.2846 33.193 51.3747 33.0974 51.4604C33.0656 51.4875 33.0383 51.5145 33.0064 51.5416C33.0201 51.528 33.0337 51.519 33.0474 51.5055C32.9791 51.5416 32.9791 51.5461 33.0565 51.5145C32.9791 51.5325 32.9837 51.537 33.0701 51.5145C33.2658 51.8526 33.4614 52.1908 33.6616 52.5334C33.88 52.0826 34.0802 51.6227 34.2622 51.1583C34.3942 50.8157 34.1166 50.4145 33.7845 50.3243C33.4023 50.2206 33.0838 50.4551 32.9473 50.7977Z" fill="#727272"/>
<path d="M29.5667 58.8902C29.503 59.2689 29.4393 59.6476 29.3756 60.0217C29.3256 60.3238 29.4075 60.6213 29.6896 60.7836C29.9398 60.9279 30.3174 60.9009 30.5176 60.68C30.6496 60.5312 30.7815 60.3824 30.9135 60.2336C30.9999 60.1345 31.1228 59.9496 31.2274 59.8955C31.1137 59.9271 30.9999 59.9586 30.8816 59.9857C30.9044 59.9812 30.9317 59.9812 30.9544 59.9767C30.8407 59.9451 30.7269 59.9135 30.6086 59.8865C30.6268 59.9 30.645 59.9135 30.6632 59.9271C30.5495 59.7332 30.4357 59.5394 30.3265 59.341C30.3629 59.7287 30.2537 60.1615 30.2082 60.5537C30.1445 61.1173 30.8225 61.3246 31.2365 61.1398C31.7734 60.8918 32.1328 60.4365 32.3239 59.891C31.9418 59.9902 31.5641 60.0894 31.1819 60.1886C31.1683 60.1029 31.1546 60.0172 31.141 59.9316C30.918 60.7746 32.2375 61.1353 32.4559 60.2922C32.556 59.909 32.465 59.4898 32.1465 59.2328C31.737 58.9037 31.1865 59.0209 31.0045 59.5303C30.9226 59.7558 30.7542 59.873 30.5449 59.9722C30.8862 60.166 31.2274 60.3599 31.5732 60.5582C31.6415 59.9541 31.9691 58.8811 31.1319 58.6512C30.4266 58.4574 29.9307 59.2869 29.5485 59.7242C29.9307 59.9451 30.3083 60.1615 30.6905 60.3824C30.7542 60.0037 30.8179 59.625 30.8816 59.2508C30.9408 58.8902 30.7861 58.5205 30.4039 58.4168C30.0809 58.3311 29.6259 58.5295 29.5667 58.8902Z" fill="#727272"/>
<path d="M28.9797 67.0367C29.0252 67.5687 29.0753 68.1007 29.1208 68.6281C29.189 69.381 30.2128 69.5568 30.463 68.8085C30.5995 68.3937 30.7906 68.0195 31.0317 67.6498C30.6177 67.5957 30.1991 67.5416 29.7851 67.4875C29.9443 67.8798 30.0535 68.281 30.1127 68.7048C30.1809 69.1827 30.7679 69.2638 31.1136 69.1105C31.2865 69.0339 31.4276 68.8851 31.5186 68.7228C31.5595 68.6507 31.5914 68.565 31.6187 68.4884C31.6323 68.4478 31.6414 68.4072 31.6551 68.3666C31.6778 68.299 31.6687 68.3035 31.6369 68.3802C31.5368 68.4388 31.4367 68.4974 31.3366 68.556C31.3593 68.547 31.3866 68.5425 31.4094 68.5335C31.2865 68.5335 31.1682 68.5335 31.0454 68.5335C31.0363 68.5289 31.0272 68.5244 31.0226 68.5154C30.9407 68.4343 30.8588 68.3531 30.777 68.272C30.7906 68.29 30.7997 68.308 30.8134 68.3261C30.7906 68.1503 30.7679 67.9789 30.7451 67.8031C30.7406 67.8257 30.7406 67.8482 30.736 67.8662C30.686 68.2269 30.8225 68.5921 31.2137 68.7003C31.5322 68.7859 32.0054 68.5921 32.0555 68.2269C32.0964 67.9339 32.0737 67.6679 31.8553 67.447C31.6733 67.2666 31.3957 67.181 31.1409 67.208C30.877 67.2396 30.645 67.3929 30.504 67.6138C30.4448 67.7084 30.3629 67.8392 30.3584 67.9474C30.3538 68.1052 30.2856 67.9925 30.4312 67.9293C30.7633 68.0646 31.1 68.1998 31.4321 68.3351C31.373 67.9158 31.2638 67.5146 31.1045 67.1178C30.8861 66.5859 30.1946 66.4326 29.8579 66.9555C29.5576 67.4199 29.3255 67.9158 29.1526 68.4343C29.5985 68.4929 30.0444 68.556 30.4949 68.6146C30.4494 68.0826 30.3993 67.5506 30.3538 67.0232C30.322 66.658 30.0626 66.3469 29.6713 66.3469C29.321 66.3604 28.9479 66.6715 28.9797 67.0367Z" fill="#727272"/>
<path d="M30.6223 76.5762C30.6678 77.3561 31.0636 78.0369 31.7506 78.4336C32.2056 78.6906 32.7698 78.3615 32.7789 77.8475C32.7834 77.4508 32.8744 77.0856 33.0291 76.7204C32.647 76.8196 32.2693 76.9188 31.8871 77.018C32.0737 77.2434 32.2739 77.4418 32.4968 77.6266C32.8608 77.9287 33.5251 77.8701 33.6388 77.3291C33.6661 77.2073 33.698 77.1036 33.7389 76.9909C33.3567 77.0901 32.9791 77.1893 32.5969 77.2885C32.6379 77.2659 32.6606 77.293 32.6561 77.3651C32.8016 77.7033 33.3021 77.7754 33.5888 77.6086C33.9391 77.4057 33.9801 77.0225 33.8345 76.6844C33.7753 76.5491 33.6798 76.4274 33.5615 76.3327C33.1383 76.0036 32.6197 76.1253 32.4195 76.6303C32.374 76.743 32.3421 76.8512 32.3194 76.9684C32.7016 76.8692 33.0792 76.77 33.4614 76.6708C33.2384 76.486 33.0382 76.2831 32.8517 76.0622C32.4877 75.6204 31.8871 75.9495 31.7097 76.3598C31.5095 76.8331 31.4185 77.3336 31.4094 77.8475C31.7506 77.6537 32.0919 77.4598 32.4377 77.2614C32.1738 77.1127 32.0009 76.8782 31.9827 76.5717C31.9372 75.7151 30.5722 75.7061 30.6223 76.5762Z" fill="#727272"/>
<path d="M33.4341 85.8498C33.5934 86.2555 33.7845 86.6297 34.0438 86.9859C34.4487 87.5359 35.2541 87.333 35.3178 86.6433C35.3223 86.6027 35.3951 86.1023 35.3678 86.0797C35.1722 86.2014 34.9811 86.3232 34.7854 86.4449C34.8309 86.508 34.8719 86.5666 34.9219 86.6252C35.0948 86.8416 35.3087 87.0265 35.5862 87.1031C35.8001 87.1572 36.0503 87.1302 36.2368 87.0129C36.3597 86.9318 36.4461 86.8371 36.5098 86.7064C36.5326 86.6523 36.5553 86.5982 36.5781 86.5441C36.6827 86.2195 36.4825 86.1654 35.9821 86.3818C36.255 87.2023 37.5745 86.8506 37.297 86.0211C37.1059 85.4531 36.5508 85.0834 35.9457 85.3088C35.7 85.4035 35.4861 85.5838 35.3678 85.8182C35.3314 85.8904 35.1995 86.2014 35.245 86.2916C35.5089 86.1428 35.7682 85.9896 36.0321 85.8408C35.9957 85.7957 35.9593 85.7551 35.9275 85.71C35.7091 85.2727 35.0766 85.0248 34.6216 85.1871C33.9801 85.4125 34.0074 86.0887 33.9574 86.6478C34.3805 86.5351 34.8036 86.4224 35.2313 86.3051C35.0448 86.0527 34.8764 85.7867 34.7581 85.4936C34.4305 84.6912 33.1111 85.0383 33.4341 85.8498Z" fill="#727272"/>
<path d="M40.7276 50.9824C40.2362 51.3476 39.8267 51.7804 39.5583 52.3349C39.2079 53.0563 40.0224 53.6243 40.632 53.1555C40.7776 53.0427 40.9232 52.93 41.0688 52.8173C41.1325 52.7677 41.1962 52.7181 41.2645 52.6686C41.2963 52.6415 41.3282 52.619 41.36 52.5919C41.4738 52.5108 41.4146 52.5243 41.1826 52.628C41.0688 52.5964 40.9551 52.5649 40.8368 52.5378C40.8504 52.5468 40.8641 52.5558 40.8777 52.5649C40.7958 52.4837 40.7139 52.4026 40.632 52.3214C40.6184 52.2628 40.6002 52.2087 40.5865 52.1501C40.5911 52.087 40.5911 52.078 40.5774 52.1321C40.5456 52.1546 40.5365 52.3079 40.5365 52.3304C40.5046 52.5378 40.5228 52.7407 40.632 52.93C40.7321 53.1014 40.9096 53.2546 41.1052 53.3042C41.1871 53.3268 41.2918 53.3358 41.3782 53.3358C41.4601 53.3358 41.5329 53.3223 41.6057 53.2952C41.7013 53.2682 41.6694 53.2591 41.5056 53.2682C41.4055 53.2096 41.3054 53.1509 41.2053 53.0923C41.219 53.1059 41.2326 53.1194 41.2463 53.1329C41.1871 53.0337 41.128 52.9345 41.0688 52.8354C41.0734 52.8489 41.0779 52.8669 41.0825 52.8804C41.1052 52.7046 41.128 52.5333 41.1507 52.3575C41.1416 52.371 41.1371 52.3845 41.128 52.3981C40.7139 53.1645 41.8923 53.8497 42.3064 53.0788C42.4838 52.7542 42.4429 52.389 42.1653 52.1321C42.0197 51.9968 41.8241 51.9157 41.6239 51.9112C41.5102 51.9066 41.3782 51.9788 41.2781 51.9698C41.3919 52.0013 41.5056 52.0329 41.6239 52.0599C41.6057 52.0464 41.5875 52.0329 41.5739 52.0239C41.6558 52.105 41.7377 52.1862 41.8196 52.2673C41.8105 52.2493 41.8014 52.2312 41.7923 52.2132C41.8241 52.3259 41.856 52.4386 41.8832 52.5558C41.8741 52.4702 41.8878 52.5153 41.9196 52.389C41.956 52.2312 41.9606 52.0599 41.9242 51.8976C41.8469 51.573 41.6012 51.3386 41.2736 51.28C40.9323 51.2169 40.7003 51.3927 40.4409 51.5911C40.1816 51.7894 39.9223 51.9923 39.6629 52.1907C40.0223 52.4657 40.3772 52.7362 40.7367 53.0112C40.9005 52.6776 41.1098 52.371 41.4146 52.1456C41.7104 51.9292 41.8605 51.5595 41.6603 51.2214C41.492 50.9374 41.0279 50.766 40.7276 50.9824Z" fill="#727272"/>
<path d="M38.0568 58.5925C37.943 59.1335 37.8338 59.6745 37.7201 60.22C37.579 60.9097 38.3343 61.3065 38.8621 60.8782C39.0168 60.7519 39.1533 60.5941 39.2534 60.4228C39.3216 60.3056 39.4035 60.0667 39.4399 60.0081C39.358 60.0892 39.2761 60.1704 39.1942 60.2515C39.217 60.238 39.2352 60.2245 39.2579 60.2064C39.1442 60.238 39.0304 60.2696 38.9121 60.2966C38.9394 60.2921 38.9667 60.2921 38.994 60.2876C38.8803 60.256 38.7665 60.2245 38.6482 60.1974C38.539 60.1478 38.5345 59.972 38.5663 60.2019C38.5754 60.2605 38.5891 60.3101 38.6073 60.3642C38.671 60.5671 38.7847 60.7474 38.9576 60.8737C39.1169 60.9909 39.3034 61.054 39.5036 61.0495C39.6265 61.045 39.7402 61.0134 39.8494 60.9593C39.9085 60.9368 39.9586 60.9052 40.0041 60.8646C40.1224 60.7835 40.0905 60.788 39.9131 60.8692C39.7994 60.8376 39.6856 60.806 39.5673 60.779C39.5855 60.788 39.5901 60.797 39.6037 60.8331C39.8949 61.6491 41.2144 61.2974 40.9186 60.4724C40.7912 60.1163 40.6047 59.7872 40.2543 59.6113C40.0723 59.5167 39.8449 59.4896 39.6447 59.5347C39.4445 59.5798 39.3262 59.7105 39.1533 59.7917C39.267 59.7601 39.3808 59.7286 39.4991 59.7015C39.4763 59.7015 39.449 59.7015 39.4263 59.7015C39.54 59.7331 39.6538 59.7646 39.7721 59.7917C39.8949 60.0036 39.9313 60.0351 39.8812 59.8863C39.8721 59.8277 39.8631 59.7691 39.854 59.7105C39.8221 59.5933 39.7721 59.4716 39.7084 59.3724C39.54 59.1109 39.2625 58.9396 38.9485 58.9441C38.6391 58.9486 38.357 59.1244 38.2114 59.3904C38.0886 59.6158 38.0977 59.7511 37.8884 59.9224C38.2706 60.1433 38.6482 60.3597 39.0304 60.5806C39.1442 60.0396 39.2534 59.4986 39.3671 58.9576C39.5491 58.1011 38.2342 57.7404 38.0568 58.5925Z" fill="#727272"/>
<path d="M37.529 65.5039C37.3879 66.2298 37.297 66.9601 37.2742 67.695C37.256 68.2089 37.8657 68.5335 38.3025 68.281C38.5027 68.1638 38.6483 68.006 38.7575 67.8032C38.7984 67.7265 38.9167 67.5507 38.894 67.4831C38.8894 67.4741 38.8485 67.5327 38.8667 67.5236C38.7529 67.5552 38.6392 67.5868 38.5209 67.6138C38.5118 67.6183 38.4981 67.6183 38.489 67.6228C38.4071 67.5417 38.3252 67.4605 38.2433 67.3794C38.3207 67.4786 38.3116 67.4695 38.3207 67.5732C38.3707 68.1278 39.0441 68.4974 39.4854 68.0511C39.5355 67.997 39.5855 67.9474 39.6401 67.8978C39.5446 67.9429 39.4445 67.9339 39.3489 67.8798C39.2898 67.7806 39.2306 67.6814 39.1715 67.5823C39.1806 67.6093 39.1897 67.6364 39.2033 67.6634C39.3307 68.006 39.6674 68.2405 40.0451 68.1368C40.3772 68.0466 40.6502 67.6499 40.5228 67.3027C40.1679 66.347 39.1351 66.4687 38.5209 67.0954C38.9076 67.2531 39.2989 67.4154 39.6856 67.5732C39.631 66.9195 39.3034 66.2117 38.5209 66.2613C38.2024 66.2793 37.9203 66.4642 37.7519 66.7302C37.6928 66.8249 37.6518 66.9331 37.6063 67.0367C37.5563 67.1495 37.4698 67.19 37.6109 67.1089C37.9521 67.3027 38.2934 67.4966 38.6392 67.695C38.6574 67.0773 38.7256 66.4687 38.8439 65.8601C39.0123 65.0125 37.6973 64.6518 37.529 65.5039Z" fill="#727272"/>
<path d="M38.2069 73.2265C38.3616 73.8306 38.5482 74.4212 38.7666 75.0028C38.944 75.4761 39.5128 75.6745 39.9086 75.3003C40.0815 75.1335 40.1998 74.9396 40.2589 74.7052C40.2817 74.6105 40.2999 74.4978 40.3044 74.4031C40.3181 74.1146 40.2862 74.3536 40.3135 74.34C40.1998 74.3716 40.086 74.4031 39.9677 74.4302C39.9996 74.4302 40.0269 74.4257 40.0587 74.4257C39.945 74.3941 39.8312 74.3626 39.7129 74.3355C39.6219 74.2949 39.6492 74.2544 39.722 74.3806C39.7584 74.4437 39.7903 74.4978 39.8358 74.5564C39.9768 74.7368 40.1497 74.8585 40.3818 74.89C40.5865 74.9171 40.7822 74.8675 40.9551 74.7503C41.0506 74.6827 41.1371 74.606 41.2008 74.5068C41.2281 74.4527 41.2554 74.3986 41.2781 74.3445C41.3691 74.1687 41.2918 74.2138 41.0461 74.4843C40.9232 74.4843 40.8049 74.4843 40.6821 74.4843C40.6275 74.4392 40.5774 74.3896 40.5228 74.3445C40.491 74.2318 40.4591 74.1191 40.4318 74.0019C40.4318 74.029 40.4318 74.056 40.4318 74.0831C40.4182 74.9532 41.7831 74.9532 41.7968 74.0831C41.8059 73.6277 41.4874 73.2716 41.0461 73.1814C40.8095 73.1318 40.5729 73.1814 40.3772 73.3211C40.2817 73.3888 40.2043 73.4654 40.1406 73.5601C40.127 73.5871 40.1133 73.6187 40.0951 73.6457C39.9768 73.8712 40.0087 73.8667 40.1952 73.6322C40.309 73.6007 40.4227 73.5691 40.541 73.5421C40.5183 73.5466 40.4955 73.5466 40.4728 73.5511C40.5865 73.5826 40.7003 73.6142 40.8186 73.6412C41.0142 73.7359 40.9141 73.7044 40.8413 73.5781C40.7867 73.4789 40.7139 73.3843 40.632 73.3121C40.3727 73.0822 40.0314 73.0236 39.7084 73.1363C39.4491 73.2265 39.2534 73.4248 39.1215 73.6548C39.0487 73.7855 39.0123 73.9162 38.985 74.0605C38.9713 74.1236 38.985 74.304 38.944 74.3445C39.3262 74.4437 39.7038 74.5429 40.086 74.6421C39.8676 74.0605 39.6811 73.4654 39.5264 72.8658C39.3035 72.0273 37.9885 72.3834 38.2069 73.2265Z" fill="#727272"/>
<path d="M38.894 79.6869C39.1397 80.4037 39.4536 81.0935 39.8404 81.7427C40.1179 82.207 40.7321 82.1529 41.0188 81.7427C41.0961 81.63 41.1507 81.5128 41.1871 81.382C41.1917 81.3414 41.1962 81.3054 41.2053 81.2648C41.2781 81.0033 41.2144 81.0123 41.0051 81.2964C40.8823 81.2964 40.764 81.2964 40.6411 81.2964C40.45 81.2378 40.5365 81.2513 40.6366 81.3595C40.7094 81.4361 40.8004 81.5173 40.8959 81.5714C41.0916 81.6796 41.3236 81.7202 41.5466 81.7021C42.0561 81.6661 42.4065 81.3324 42.5748 80.8771C42.8797 80.0611 41.5602 79.7049 41.2599 80.5164C41.3464 80.291 41.5602 80.4172 41.5238 80.309C41.4965 80.2324 41.3373 80.1287 41.2645 80.0881C41.0415 79.9619 40.7731 79.9349 40.5319 80.016C40.309 80.0881 40.1315 80.2549 40.0178 80.4578C39.9177 80.6382 39.945 80.9086 39.8358 81.0619C40.2271 81.0619 40.6229 81.0619 41.0142 81.0619C40.6821 80.5074 40.4136 79.9394 40.2043 79.3307C39.9314 78.5102 38.6119 78.8619 38.894 79.6869Z" fill="#727272"/>
<path d="M40.6911 87.4008C40.6957 87.775 40.7503 88.1492 40.8686 88.5008C40.955 88.7578 41.1598 88.9471 41.4373 88.9832C41.6876 89.0148 42.0015 88.9021 42.1153 88.6586C42.1926 88.4963 42.27 88.334 42.3473 88.1762C42.3837 88.0996 42.4201 88.0274 42.452 87.9508C42.4702 87.9147 42.4884 87.8742 42.5066 87.8381C42.543 87.7705 42.543 87.7705 42.5066 87.8381C42.4065 87.8967 42.3064 87.9553 42.2063 88.0139C42.2199 88.0094 42.2381 88.0004 42.2518 87.9959C42.1289 87.9959 42.0106 87.9959 41.8878 87.9959C41.865 87.9869 41.8377 87.9733 41.815 87.9643C41.7331 87.8832 41.6512 87.802 41.5693 87.7209C41.501 87.6082 41.5647 87.7028 41.592 87.7795C41.6148 87.8516 41.6421 87.9192 41.6648 87.9914C41.7149 88.1311 41.7649 88.2754 41.8104 88.4152C41.9287 88.7623 42.2791 88.9877 42.6521 88.8885C42.9888 88.7984 43.2482 88.4016 43.1299 88.0545C42.9342 87.4955 42.7704 86.5758 41.9788 86.6795C41.3645 86.7606 41.1598 87.5 40.9323 87.9779C41.3463 88.032 41.7649 88.0861 42.179 88.1402C42.0925 87.8742 42.0516 87.6578 42.047 87.3963C42.0425 87.0446 41.7376 86.702 41.3645 86.72C41.0051 86.7381 40.6866 87.0221 40.6911 87.4008Z" fill="#727272"/>
<path d="M46.9609 88.2211C46.9245 88.5277 46.8881 88.8388 46.8517 89.1453C46.8153 89.4339 47.0883 89.7269 47.3522 89.799C47.6615 89.8847 47.9482 89.7359 48.1211 89.488C48.2439 89.3121 48.3668 89.1408 48.4896 88.965C48.5442 88.8838 48.6034 88.8072 48.658 88.7261C48.6807 88.6945 48.7035 88.6629 48.7262 88.6314C48.8263 88.4961 48.8127 88.5051 48.6898 88.6584C48.5761 88.69 48.4623 88.7215 48.344 88.7486C48.3668 88.7486 48.385 88.7486 48.4077 88.7486C48.294 88.717 48.1802 88.6855 48.0619 88.6584C47.9254 88.424 47.8799 88.3789 47.9254 88.5232C47.9391 88.5773 47.9482 88.6359 47.9618 88.69C47.9846 88.8027 48.0073 88.9109 48.0346 89.0236C48.0847 89.258 48.1074 89.533 48.2303 89.7449C48.3486 89.9433 48.5442 90.1146 48.7717 90.1777C49.1221 90.2724 49.4087 90.0966 49.6134 89.8261C49.8364 89.533 49.6589 89.0687 49.3678 88.9019C49.0174 88.699 48.658 88.8523 48.435 89.1453C48.4259 89.1589 48.4168 89.1724 48.4077 89.1814C48.6034 89.0687 48.799 88.956 48.9992 88.8478C48.9856 88.8478 48.9719 88.8523 48.9583 88.8523C49.072 88.8838 49.1858 88.9154 49.3041 88.9425C49.4223 89.0011 49.4951 89.3302 49.4269 88.9966C49.4087 88.9019 49.386 88.8117 49.3678 88.717C49.3314 88.5502 49.2995 88.3834 49.2631 88.2166C49.1812 87.865 48.9674 87.5223 48.5943 87.4186C48.1802 87.3059 47.8526 87.5404 47.6206 87.8469C47.3886 88.158 47.1702 88.4781 46.9472 88.7937C47.3704 88.9064 47.7935 89.0191 48.2212 89.1363C48.2576 88.8297 48.294 88.5187 48.3304 88.2121C48.3713 87.8469 47.9846 87.5359 47.6479 87.5359C47.243 87.5449 47.0064 87.8605 46.9609 88.2211Z" fill="#727272"/>
<path d="M47.6161 75.8729C47.4477 76.5942 47.3658 77.3336 47.3795 78.073C47.3886 78.7086 48.3349 79.0377 48.6534 78.4156C48.7899 78.1451 48.9264 77.8791 49.0629 77.6086C49.163 77.4102 49.2358 77.1623 49.4178 77.0225C49.3177 77.0811 49.2176 77.1397 49.1175 77.1984C49.1175 77.1938 49.1175 77.1893 49.1221 77.1848C48.9037 77.018 48.6853 76.8557 48.4623 76.6889C48.5488 77.009 48.6352 77.3291 48.7217 77.6492C48.8309 78.0504 49.3541 78.2939 49.7226 78.0549C49.7863 78.0144 49.85 77.9693 49.9137 77.9287C50.6417 77.4508 49.9592 76.2787 49.2267 76.761C49.163 76.8016 49.0993 76.8467 49.0356 76.8873C49.3678 77.0225 49.7044 77.1578 50.0366 77.293C49.9501 76.9729 49.8637 76.6528 49.7772 76.3328C49.6999 76.0487 49.4178 75.8323 49.1175 75.8368C48.1575 75.8549 47.8299 77.0361 47.475 77.7394C47.8981 77.8521 48.3213 77.9648 48.749 78.082C48.7399 77.4553 48.7945 76.8512 48.9355 76.2381C49.1266 75.386 47.8117 75.0253 47.6161 75.8729Z" fill="#727272"/>
<path d="M46.3148 65.7563C46.3467 66.2883 46.374 66.8157 46.4058 67.3477C46.4422 68.015 47.3067 68.2719 47.6798 67.6904C47.9437 67.2756 48.2076 66.8653 48.4715 66.4506C48.0802 66.4506 47.6843 66.4506 47.293 66.4506C47.3886 66.6129 47.4477 66.7616 47.4568 66.951C47.4887 67.5461 48.1757 67.8301 48.6216 67.4289C48.9674 67.1223 49.1903 66.7526 49.3587 66.3243C49.0266 66.4596 48.6899 66.5948 48.3577 66.7301C48.3577 66.7391 48.3577 66.7481 48.3532 66.7526C48.294 66.6534 48.2349 66.5543 48.1757 66.4551C48.1894 66.4821 48.1985 66.5137 48.2121 66.5407C48.3532 66.8789 48.6626 67.1178 49.0539 67.0141C49.3723 66.9284 49.6726 66.5227 49.5316 66.1801C49.4133 65.9051 49.2904 65.7383 49.0448 65.5579C48.658 65.2739 48.1848 65.5985 48.0438 65.9637C47.9619 66.1711 47.8208 66.3243 47.657 66.4731C48.0438 66.6309 48.4351 66.7932 48.8218 66.951C48.7991 66.5272 48.6899 66.135 48.4715 65.7698C48.203 65.3235 47.566 65.3415 47.293 65.7698C47.0292 66.1846 46.7653 66.5948 46.5014 67.0096C46.9245 67.1223 47.3476 67.235 47.7753 67.3522C47.7435 66.8202 47.7162 66.2928 47.6843 65.7608C47.6297 64.8907 46.2648 64.8862 46.3148 65.7563Z" fill="#727272"/>
<path d="M46.6833 56.8162C46.6424 57.1588 46.6242 57.5014 46.6333 57.8441C46.6469 58.3129 47.2202 58.7457 47.6616 58.4302C47.889 58.2679 48.0301 58.083 48.1074 57.817C48.1256 57.7539 48.1438 57.6818 48.1529 57.6187C48.162 57.56 48.1984 57.5555 48.1484 57.6006C47.9118 57.817 47.6616 58.1281 47.2839 57.6773C47.3249 57.7269 47.3112 57.7223 47.2839 57.6637C47.3158 57.7314 47.3385 57.808 47.3704 57.8756C47.425 57.9928 47.5069 58.0965 47.5979 58.1867C47.8799 58.4617 48.2985 58.5158 48.6398 58.322C48.9628 58.1416 49.0675 57.7088 48.8855 57.3977C48.6944 57.0777 48.2758 56.974 47.9527 57.1543C47.9391 57.1633 47.9209 57.1723 47.9072 57.1813C48.021 57.1498 48.1347 57.1182 48.253 57.0912C48.2894 57.0867 48.617 57.267 48.5897 57.276C48.6079 57.3121 48.6079 57.3121 48.5943 57.2805C48.5806 57.2445 48.567 57.2084 48.5488 57.1723C48.4942 57.0416 48.4305 56.9199 48.3304 56.8117C48.1074 56.5817 47.7616 56.469 47.4477 56.5682C47.152 56.6584 46.9563 56.8928 46.8608 57.1768C46.838 57.24 46.8289 57.3031 46.8107 57.3707C46.8016 57.4023 46.7925 57.4293 46.788 57.4609C46.7698 57.5195 46.7698 57.5195 46.7925 57.4609C46.8198 57.3752 46.879 57.3076 46.97 57.2625C47.3112 57.4564 47.6525 57.6502 47.9982 57.8486C47.9891 57.5059 48.0073 57.1633 48.0483 56.8207C48.0938 56.469 47.7025 56.1309 47.3658 56.1444C46.9609 56.1625 46.7334 56.442 46.6833 56.8162Z" fill="#727272"/>
<path d="M46.2647 49.8823C46.1373 50.3782 46.201 50.8877 46.4695 51.325C46.788 51.8569 47.5205 51.6946 47.7162 51.1627C47.7889 50.9643 47.6798 51.2844 47.748 51.0815C47.7753 51.0049 47.798 51.0409 47.7298 51.0725C47.5205 51.1807 47.2384 51.1086 47.1747 50.8381C47.2612 51.1942 47.6661 51.4061 48.0164 51.3114C48.3804 51.2123 48.5806 50.8381 48.4942 50.4774C48.3713 49.9635 47.8071 49.6884 47.3021 49.8057C46.8062 49.9274 46.565 50.3557 46.4012 50.7975C46.8153 50.7434 47.2339 50.6893 47.6479 50.6352C47.5797 50.518 47.5706 50.527 47.5569 50.3872C47.566 50.4594 47.5615 50.3692 47.5615 50.3467C47.5706 50.1483 47.5342 50.4278 47.5797 50.234C47.6661 49.8913 47.4659 49.4856 47.1019 49.3999C46.7516 49.3278 46.3603 49.5126 46.2647 49.8823Z" fill="#727272"/>
<path d="M26.7549 48.2865C26.5547 48.548 26.3727 48.823 26.2134 49.1116C25.945 49.5849 26.4 50.3243 26.9824 50.1034C27.1917 50.0268 27.3964 49.9456 27.6057 49.869C27.3282 49.7112 27.0461 49.5534 26.764 49.3956C26.8004 49.4993 26.8186 49.5669 26.814 49.6706C26.8095 50.0132 27.1325 50.3784 27.4965 50.3468C27.8377 50.3198 28.1289 50.2386 28.4338 50.0944C28.7659 49.9366 28.8524 49.4632 28.6795 49.1702C28.4793 48.8321 28.0789 48.7689 27.7467 48.9267C27.6785 48.9583 27.5511 48.9898 27.4965 48.9944C27.724 49.2198 27.9515 49.4452 28.179 49.6706C28.1835 49.4542 28.1517 49.2378 28.0789 49.0349C27.9651 48.7148 27.6057 48.4263 27.2372 48.5616C27.0279 48.6382 26.8231 48.7193 26.6138 48.796C26.8686 49.1251 27.128 49.4587 27.3828 49.7878C27.5465 49.4993 27.724 49.2243 27.9242 48.9628C28.1471 48.6698 27.9697 48.2054 27.6785 48.0386C27.3373 47.8447 26.9778 47.9935 26.7549 48.2865Z" fill="#727272"/>
<path d="M22.892 55.8786C22.6327 56.4421 22.4098 57.0192 22.2278 57.6143C22.114 57.984 22.3643 58.3266 22.7055 58.4483C22.9967 58.552 23.3106 58.4889 23.5654 58.3266C23.6746 58.2544 23.7474 58.1823 23.8293 58.0876C24.1433 57.718 23.711 58.1958 23.4562 57.8848C23.3971 57.7856 23.3379 57.6864 23.2788 57.5872C23.2424 57.461 23.2697 57.7225 23.2697 57.718C23.2833 57.8217 23.3106 57.9299 23.3652 58.0245C23.4699 58.2003 23.661 58.3446 23.8566 58.3987C24.2252 58.4979 24.6983 58.3581 24.8576 57.9885C25.0032 57.6548 24.9577 57.2626 24.6119 57.0643C24.3253 56.8974 23.8248 56.9696 23.6792 57.3077C23.6928 57.2897 23.7065 57.2716 23.7247 57.2581C23.8248 57.1995 23.9249 57.1409 24.025 57.0823C24.1615 57.1229 24.298 57.1634 24.4344 57.204C24.4936 57.3032 24.5527 57.4024 24.6119 57.5016C24.6483 57.6278 24.621 57.3167 24.6119 57.2852C24.5755 57.1499 24.5118 57.0282 24.4208 56.929C24.2525 56.7532 24.0341 56.6495 23.7884 56.636C23.5654 56.6269 23.3607 56.6901 23.1787 56.8163C23.0922 56.8749 23.0194 56.9425 22.9512 57.0237C22.6691 57.3483 22.8647 57.0733 23.074 57.1454C23.2333 57.4249 23.3925 57.6999 23.5518 57.9794C23.6974 57.4971 23.8703 57.0282 24.0796 56.5683C24.2297 56.2347 24.1751 55.8425 23.8339 55.6441C23.5336 55.4683 23.0422 55.545 22.892 55.8786Z" fill="#727272"/>
<path d="M21.3815 63.8539C21.2359 64.6293 21.2359 65.3822 21.3906 66.1576C21.4679 66.5408 21.8865 66.6851 22.2323 66.631C22.4325 66.5994 22.619 66.4867 22.7601 66.3379C22.8192 66.2748 22.8738 66.1982 22.9239 66.126C22.9512 66.0855 22.9739 66.0449 22.9967 65.9998C23.0376 65.9367 23.024 65.9412 22.9466 66.0043C22.8238 66.0043 22.7055 66.0043 22.5826 66.0043C22.6145 66.0133 22.6463 66.0223 22.6782 66.0314C22.5781 65.9728 22.478 65.9141 22.3779 65.8555C22.3278 65.7518 22.3233 65.7564 22.3688 65.8691C22.3915 65.9232 22.4143 65.9773 22.437 66.0314C22.5098 66.1666 22.6099 66.2748 22.7373 66.356C23.0422 66.5588 23.3197 66.5453 23.6473 66.3965C23.984 66.2478 24.0659 65.7609 23.893 65.4723C23.6928 65.1297 23.297 65.0801 22.9603 65.2289C22.9375 65.2379 22.9102 65.2514 22.8875 65.2604C23.0649 65.2379 23.2378 65.2154 23.4153 65.1928C23.388 65.1838 23.3607 65.1793 23.3334 65.1703C23.4335 65.2289 23.5336 65.2875 23.6337 65.3461C23.661 65.4363 23.661 65.4453 23.6382 65.3777C23.6155 65.3055 23.5882 65.2379 23.5563 65.1748C23.5154 65.0981 23.4699 65.0215 23.4062 64.9584C23.2151 64.7555 22.9512 64.6608 22.6736 64.6879C22.4325 64.7104 22.2186 64.8276 22.0503 64.999C21.9684 65.0801 21.9001 65.1748 21.841 65.274C21.8274 65.301 21.8092 65.3281 21.7955 65.3551C21.7091 65.4814 21.7318 65.4678 21.8683 65.3191C22.1458 65.4768 22.4279 65.6346 22.71 65.7924C22.6054 65.2695 22.6008 64.733 22.7009 64.21C22.7692 63.8493 22.6008 63.4797 22.2232 63.376C21.8865 63.2903 21.4497 63.4932 21.3815 63.8539Z" fill="#727272"/>
<path d="M22.3552 73.6142C22.5463 73.9929 22.7328 74.3716 22.9239 74.7503C23.0922 75.0839 23.5518 75.1606 23.8566 74.9938C24.1023 74.8585 24.2707 74.6421 24.348 74.3716C24.3844 74.2499 24.4072 74.0966 24.3935 73.9704C24.3799 73.8261 24.4436 73.8667 24.3662 73.9343C24.2661 73.9929 24.166 74.0515 24.0659 74.1101C24.0568 74.1146 24.0477 74.1146 24.0386 74.1192C23.9249 74.0876 23.8111 74.056 23.6928 74.029C23.9294 74.1642 24.0432 74.3806 24.389 74.3806C24.7984 74.3806 24.8894 74.1417 25.1351 73.9028C25.035 73.9614 24.9349 74.02 24.8348 74.0786C24.7029 73.9974 24.571 73.9163 24.439 73.8306C24.4936 74.1913 24.9531 74.3897 25.2807 74.304C25.672 74.1958 25.8131 73.8351 25.7585 73.47C25.6948 73.0642 25.308 72.7622 24.9076 72.7216C24.439 72.6765 24.1342 72.929 23.9112 73.3077C23.9931 73.2265 24.075 73.1454 24.1569 73.0642C24.1342 73.0822 24.1069 73.1003 24.0841 73.1183C24.1979 73.0868 24.3116 73.0552 24.4299 73.0281C24.4072 73.0281 24.3799 73.0281 24.3571 73.0281C24.4709 73.0597 24.5846 73.0913 24.7029 73.1183C24.621 73.0732 24.4072 72.8433 24.2252 72.7937C23.9658 72.7216 23.6928 72.7757 23.479 72.9335C23.2879 73.0732 23.1559 73.2806 23.0877 73.5015C23.0422 73.6413 23.0922 73.9253 23.0194 74.0245C23.1013 73.9433 23.1832 73.8622 23.2651 73.781C23.2378 73.7946 23.2105 73.8126 23.1787 73.8261C23.4881 73.9073 23.802 73.9884 24.1114 74.0696C23.9203 73.6909 23.7338 73.3122 23.5427 72.9335C23.1423 72.149 21.9639 72.8343 22.3552 73.6142Z" fill="#727272"/>
<path d="M26.5684 83.6587C26.5456 84.2403 27.1553 84.5694 27.6694 84.4116C27.9151 84.335 28.0926 84.1637 28.2109 83.9473C28.2291 83.9112 28.2473 83.8706 28.2655 83.8346C28.3656 83.6768 28.2655 83.7219 27.9561 83.9788C27.815 83.9608 27.8787 83.9608 27.9788 84.0149C28.3019 84.1907 28.725 84.0915 28.9116 83.7715C29.0935 83.4604 28.9889 83.0231 28.6659 82.8472C28.3292 82.6624 27.947 82.5542 27.5739 82.7075C27.3828 82.7886 27.2235 82.9239 27.1144 83.1042C27.0825 83.1538 27.0507 83.2124 27.0325 83.271C27.0234 83.2891 27.0143 83.3071 27.0052 83.3251C27.2417 83.0636 27.4874 83.0411 27.7468 83.2575C27.8059 83.3567 27.8651 83.4559 27.9242 83.5551C27.9288 83.5911 27.9333 83.6272 27.9379 83.6633C27.9515 83.3071 27.6148 82.969 27.2554 82.987C26.8687 83.0005 26.582 83.28 26.5684 83.6587Z" fill="#727272"/>
<path d="M51.7883 50.1576C51.8702 50.5634 52.0113 50.9421 52.1887 51.3163C52.357 51.6634 52.8166 51.7085 53.1214 51.5597C53.2943 51.4741 53.4354 51.3208 53.5264 51.154C53.5537 51.1044 53.5719 51.0503 53.5992 50.9962C53.7448 50.6851 53.5946 51.154 53.2443 51.1179C53.1305 51.0863 53.0168 51.0548 52.8985 51.0277C52.8211 50.9917 53.0122 51.1134 53.0122 51.1134C53.085 51.1675 53.1351 51.199 53.2215 51.2351C53.399 51.3118 53.581 51.3253 53.7721 51.2982C54.1815 51.2306 54.4227 50.9691 54.5774 50.604C54.7184 50.2658 54.4227 49.8601 54.0996 49.7699C53.7084 49.6617 53.4035 49.9052 53.2579 50.2433C53.4172 49.9502 53.6174 49.8871 53.854 50.0539C53.8358 50.0359 53.8176 50.0179 53.7948 50.0043C53.7084 49.9187 53.5446 49.8285 53.4263 49.797C53.2079 49.7384 52.9713 49.7744 52.7802 49.8871C52.6209 49.9818 52.5072 50.1306 52.4298 50.2929C52.4116 50.3335 52.3889 50.3785 52.3707 50.4236C52.3207 50.5679 52.3479 50.4326 52.4298 50.3966C52.7392 50.4777 53.0532 50.5589 53.3626 50.64C53.2352 50.374 53.1578 50.0945 53.0987 49.806C53.0304 49.4453 52.5936 49.2424 52.257 49.3326C51.8884 49.4273 51.7201 49.797 51.7883 50.1576Z" fill="#727272"/>
<path d="M53.3717 57.8982C53.4581 58.3265 53.5491 58.7548 53.6356 59.1831C53.7812 59.8909 54.7412 59.7602 54.9505 59.1831C55.0187 58.9892 55.137 58.863 55.2872 58.7278C54.9277 58.6827 54.5728 58.6376 54.2134 58.5925C54.3317 58.863 54.4545 59.138 54.5728 59.4085C54.7093 59.7196 55.2371 59.8548 55.5056 59.652C55.6693 59.5302 55.8013 59.422 55.9059 59.2417C55.9423 59.1786 55.9833 59.1019 56.006 59.0298C56.0151 58.9983 56.0288 58.9667 56.047 58.9397C56.1562 58.7413 55.9469 58.6782 55.4146 58.7503C55.3645 59.111 55.7649 59.4265 56.097 59.4265C56.5065 59.4265 56.7295 59.1155 56.7795 58.7503C56.8569 58.1868 56.3245 57.6773 55.774 57.6773C55.4964 57.6773 55.2462 57.799 55.0597 57.9929C54.9732 58.0831 54.9141 58.1823 54.8549 58.2905C54.8185 58.3626 54.6775 58.588 54.8185 58.4843C55.1279 58.5655 55.4419 58.6466 55.7512 58.7278C55.6329 58.4573 55.5101 58.1823 55.3918 57.9118C55.2053 57.488 54.6092 57.515 54.318 57.7765C53.9904 58.0695 53.7811 58.4212 53.631 58.8269C54.0678 58.8269 54.5091 58.8269 54.9459 58.8269C54.8595 58.3987 54.7685 57.9704 54.682 57.5421C54.5137 56.6855 53.1942 57.0462 53.3717 57.8982Z" fill="#727272"/>
<path d="M54.5683 68.2403C54.5273 68.5784 54.5683 68.9256 54.6593 69.2502C54.773 69.6424 55.2917 69.9084 55.6602 69.6559C55.9014 69.4891 56.047 69.3088 56.1516 69.0383C56.1789 68.9707 56.2017 68.8985 56.2244 68.8264C56.2654 68.6821 56.2244 68.876 56.1061 68.894C55.9833 68.894 55.865 68.894 55.7421 68.894C55.6284 68.8489 55.5556 68.7813 55.5374 68.6821C55.5237 68.6371 55.5283 68.6506 55.5556 68.7227C55.5692 68.7633 55.5829 68.8084 55.5965 68.8489C55.6739 69.0563 55.7831 69.2231 55.956 69.3629C56.3291 69.6604 56.7522 69.6109 57.1162 69.3313C57.4074 69.1059 57.3528 68.61 57.1162 68.3756C56.8296 68.0915 56.4428 68.1502 56.1516 68.3756C56.138 68.3891 56.1198 68.3981 56.1061 68.4116C56.2062 68.353 56.3063 68.2944 56.4064 68.2358C56.3882 68.2403 56.37 68.2448 56.3518 68.2493C56.4747 68.2493 56.593 68.2493 56.7158 68.2493C56.7977 68.2629 56.916 68.5108 56.866 68.362C56.8296 68.2448 56.7841 68.1231 56.7204 68.0194C56.5293 67.7129 56.1926 67.537 55.8331 67.5731C55.5146 67.6047 55.2553 67.803 55.0824 68.0645C55.0096 68.1772 54.9596 68.3034 54.9186 68.4297C54.905 68.4702 54.8777 68.5289 54.8731 68.5694C54.8686 68.628 54.8595 68.5559 54.9732 68.4793C55.3053 68.6145 55.642 68.7498 55.9742 68.885C55.9105 68.6641 55.9014 68.4657 55.9287 68.2358C55.9696 67.8706 55.5829 67.5596 55.2462 67.5596C54.8504 67.5641 54.6138 67.8752 54.5683 68.2403Z" fill="#727272"/>
<path d="M54.1906 76.202C54.1542 76.6438 54.1906 77.0766 54.2589 77.5139C54.3408 78.0234 55.0733 78.1541 55.4009 77.8115C55.5192 77.6898 55.642 77.568 55.7694 77.4553C55.8832 77.3561 56.0015 77.257 56.0925 77.1938C55.7603 77.0586 55.4237 76.9233 55.0915 76.7881C55.1325 76.9053 55.1325 76.7701 55.1188 76.8963C55.1279 76.8016 55.0642 76.9819 55.1097 76.9053C54.9323 77.2254 55.0324 77.6447 55.3554 77.8295C55.6693 78.0098 56.1107 77.9107 56.2881 77.5861C56.4838 77.2299 56.5475 76.8151 56.411 76.4274C56.279 76.0577 55.7876 75.7467 55.41 76.0217C55.0642 76.2741 54.7412 76.5446 54.4454 76.8512C54.8276 76.9504 55.2053 77.0496 55.5875 77.1488C55.542 76.8557 55.542 76.5131 55.5647 76.193C55.592 75.8413 55.2326 75.5032 54.8822 75.5168C54.4818 75.5438 54.2225 75.8233 54.1906 76.202Z" fill="#727272"/>
<path d="M53.7539 85.0339C53.5082 85.4442 53.3217 85.895 53.217 86.3639C53.1351 86.72 53.3262 87.0942 53.6947 87.1979C54.0769 87.3016 54.4045 87.0717 54.5365 86.7245C54.5774 86.6118 54.7139 86.3684 54.7867 86.2737C54.4637 86.2737 54.1452 86.2737 53.8221 86.2737C53.7402 86.1745 53.7175 86.0663 53.7493 85.9401C53.6902 86.3008 53.8449 86.6659 54.2271 86.7741C54.5547 86.8643 55.0051 86.6659 55.0688 86.3008C55.1325 85.9266 55.0643 85.5975 54.7913 85.3179C54.5547 85.0745 54.0542 85.0339 53.8267 85.3179C53.5628 85.6425 53.3717 85.9716 53.2216 86.3639C53.6583 86.4856 54.0997 86.6028 54.5365 86.7245C54.6229 86.3458 54.7367 86.0483 54.9369 85.7192C55.1234 85.4036 55.0097 84.9753 54.6912 84.795C54.3681 84.6056 53.945 84.7183 53.7539 85.0339Z" fill="#727272"/>
<path d="M58.7497 87.7343C58.4676 88.0995 58.3356 88.5504 58.3129 89.0057C58.2992 89.2717 58.4949 89.5287 58.7315 89.6233C58.9999 89.7315 59.2592 89.6684 59.4776 89.4836C59.8143 89.1995 60.151 88.911 60.4877 88.627C60.1283 88.5819 59.7734 88.5368 59.4139 88.4917C59.3866 88.4512 59.4003 88.3926 59.4048 88.3475C59.4094 88.3159 59.4822 88.2077 59.4094 88.3204C59.2137 88.6315 59.3411 89.0643 59.6551 89.2446C59.9827 89.434 60.3922 89.3123 60.5878 89.0012C60.8199 88.636 60.8153 88.1717 60.5924 87.802C60.3512 87.4052 59.8553 87.3827 59.5186 87.6667C59.1819 87.9507 58.8452 88.2393 58.5085 88.5233C58.8953 88.6811 59.2865 88.8434 59.6733 89.0012C59.6824 88.7983 59.6369 89.0913 59.6824 88.8975C59.7006 88.8299 59.7188 88.7577 59.7415 88.6901C59.7051 88.7848 59.7961 88.5954 59.7961 88.5909C59.8325 88.5278 59.8735 88.4692 59.919 88.4151C60.1419 88.1221 59.9645 87.6577 59.6733 87.4909C59.332 87.288 58.9772 87.4413 58.7497 87.7343Z" fill="#727272"/>
<path d="M61.2702 78.88C61.1747 79.3939 61.1201 79.9124 61.1155 80.4398C61.1064 81.1025 62.0574 81.373 62.3895 80.7825C62.5943 80.4128 62.8354 80.0927 63.1357 79.7951C62.8582 79.8312 62.5852 79.8673 62.3076 79.8988C62.294 79.8898 62.2758 79.8763 62.2621 79.8673C62.203 79.7681 62.1438 79.6689 62.0847 79.5697C62.071 79.5292 62.1165 79.4029 62.071 79.5472C62.0392 79.6373 62.021 79.7816 62.0164 79.8673C62.0073 80.0837 62.071 80.2956 62.1984 80.4714C62.344 80.6652 62.5852 80.796 62.8354 80.796C62.9719 80.796 63.1311 80.7554 63.2494 80.6923C63.2722 80.6788 63.2904 80.6698 63.3131 80.6562C63.4223 80.5886 63.3905 80.5841 63.2176 80.6427C63.1038 80.6111 62.9901 80.5796 62.8718 80.5525C62.6898 80.4624 62.6762 80.3587 62.6944 80.2279C62.6443 80.5886 62.7854 80.9538 63.1721 81.062C63.4906 81.1476 63.9592 80.9538 64.0138 80.5886C64.0684 80.2009 64.0502 79.8087 63.7499 79.5156C63.5998 79.3714 63.3723 79.2857 63.163 79.2902C63.0265 79.2947 62.8673 79.3398 62.749 79.4029C62.7171 79.421 62.567 79.4841 62.6534 79.466C62.7763 79.466 62.8945 79.466 63.0174 79.466C62.9992 79.4615 62.9764 79.4525 62.9582 79.448C63.0583 79.5066 63.1584 79.5652 63.2585 79.6238C63.304 79.998 63.345 80.0927 63.3859 79.9078C63.4041 79.8628 63.4132 79.8177 63.4223 79.7681C63.4451 79.6644 63.4542 79.5562 63.4451 79.448C63.4269 79.1505 63.2722 78.8664 62.9946 78.7357C62.7217 78.6004 62.3941 78.6185 62.1666 78.8394C61.7889 79.2136 61.4659 79.6373 61.2065 80.0972C61.6297 80.2099 62.0528 80.3226 62.4805 80.4398C62.4851 80.0386 62.5169 79.6373 62.5897 79.2406C62.6534 78.88 62.4896 78.5103 62.112 78.4066C61.7753 78.3164 61.3339 78.5193 61.2702 78.88Z" fill="#727272"/>
<path d="M62.1893 69.5704C61.9937 70.0348 61.9891 70.5622 62.1393 71.0401C62.3486 71.6983 63.2312 71.6668 63.4542 71.0401C63.5679 70.7155 63.7727 70.4585 64.032 70.2331C63.6453 70.0753 63.254 69.913 62.8673 69.7553C62.8809 69.9852 62.8991 70.2151 62.9128 70.4405C62.9401 70.8372 63.2039 71.0717 63.5952 71.1168C63.8136 71.1438 64.0138 71.0717 64.1958 70.9545C64.2732 70.9049 64.3414 70.8463 64.4006 70.7786C64.4233 70.7471 64.4506 70.72 64.4734 70.693C64.5553 70.6073 64.487 70.6254 64.2641 70.7471C64.1503 70.7155 64.0366 70.684 63.9183 70.6569C63.8819 70.6163 63.8409 70.5758 63.8045 70.5352C63.7727 70.4225 63.7408 70.3098 63.7135 70.1926C63.7135 70.2106 63.7135 70.2286 63.7181 70.2467C63.7499 70.134 63.7818 70.0212 63.8091 69.904C63.8 69.9176 63.7909 69.9356 63.7818 69.9491C63.3177 70.693 64.5007 71.3737 64.9602 70.6299C65.2332 70.1926 65.0057 69.6245 64.528 69.4532C64.2777 69.363 64.0229 69.3811 63.7909 69.5073C63.6953 69.5569 63.6134 69.629 63.5361 69.7057C63.5179 69.7237 63.5042 69.7462 63.486 69.7643C63.395 69.8544 63.4314 69.8544 63.5952 69.7643C63.8227 69.9897 64.0502 70.2151 64.2777 70.4405C64.2641 70.2106 64.2459 69.9807 64.2322 69.7553C64.1913 69.1556 63.5224 68.8806 63.0674 69.2774C62.6307 69.6606 62.3304 70.1385 62.1393 70.6795C62.5761 70.6795 63.0174 70.6795 63.4542 70.6795C63.3677 70.4044 63.395 70.1926 63.5042 69.9311C63.6453 69.593 63.3495 69.1872 63.0265 69.097C62.6352 68.9888 62.3304 69.2323 62.1893 69.5704Z" fill="#727272"/>
<path d="M61.6206 57.7178C61.657 58.0964 61.698 58.4797 61.7344 58.8584C61.7662 59.192 61.9664 59.4805 62.3258 59.5211C62.6534 59.5617 62.9901 59.3678 63.0766 59.0387C63.1494 58.7502 63.2495 58.4887 63.3951 58.2317C63.0038 58.2317 62.6079 58.2317 62.2166 58.2317C62.2849 58.3579 62.3531 58.4842 62.4168 58.6059C62.6671 59.0702 63.3314 59.0161 63.5953 58.6059C63.618 58.5698 63.6499 58.5383 63.6499 58.5247C63.7227 58.4616 63.6726 58.4661 63.5088 58.5383C63.436 58.5788 63.3632 58.5879 63.2904 58.5743C63.2085 58.4932 63.1266 58.412 63.0447 58.3309C63.0402 58.3128 63.0356 58.2948 63.0311 58.2768C63.295 59.1018 64.6144 58.7502 64.346 57.9161C64.2095 57.4923 63.8364 57.2263 63.3814 57.2399C62.9401 57.2534 62.6307 57.578 62.4123 57.9206C62.8036 57.9206 63.1994 57.9206 63.5907 57.9206C63.5225 57.7944 63.4542 57.6682 63.3905 57.5464C63.1539 57.1046 62.4532 57.1091 62.2121 57.5464C62.0164 57.9026 61.8617 58.2813 61.7571 58.678C62.203 58.7366 62.6489 58.7997 63.0993 58.8584C63.0629 58.4797 63.022 58.0964 62.9856 57.7178C62.9492 57.3526 62.6989 57.0415 62.3031 57.0415C61.9618 57.0415 61.5842 57.3526 61.6206 57.7178Z" fill="#727272"/>
<path d="M58.24 50.1575C58.4129 50.5902 58.6268 50.9509 58.9271 51.3116C59.2728 51.7263 59.9235 51.4558 60.0691 51.014C60.1737 50.6894 60.2192 50.3378 60.1874 49.9997C59.7642 50.1124 59.3411 50.2251 58.9134 50.3423C59.0454 50.5948 59.2319 50.8247 59.4548 51.005C59.7415 51.2349 60.1419 51.28 60.4194 51.005C60.6606 50.7661 60.7061 50.2792 60.4194 50.0493C60.3375 49.9861 60.2602 49.914 60.1965 49.8374C60.1282 49.7517 60.2374 49.905 60.1783 49.8103C60.1464 49.7607 60.1191 49.7111 60.0918 49.6615C59.9508 49.391 59.6004 49.2693 59.3183 49.346C59.0499 49.4181 58.7906 49.7066 58.8179 49.9997C58.8452 50.2837 58.8361 50.3964 58.7496 50.6534C59.1318 50.5542 59.5094 50.455 59.8916 50.3558C59.8325 50.2882 59.7733 50.2025 59.7051 50.0853C59.6732 50.0312 59.6414 49.9726 59.6095 49.9185C59.6004 49.905 59.5276 49.7337 59.5504 49.8013C59.4139 49.4632 59.0954 49.2242 58.7087 49.3279C58.3902 49.4136 58.1035 49.8148 58.24 50.1575Z" fill="#727272"/>
<path d="M65.1331 49.6345C65.1877 49.9185 65.2969 50.1935 65.4471 50.446C65.6018 50.703 65.9248 50.8382 66.216 50.7571C66.5254 50.6714 66.6892 50.4054 66.7165 50.1034C66.7483 49.7878 66.7802 49.4677 66.812 49.1521C66.4708 49.346 66.1295 49.5398 65.7837 49.7382C65.993 49.8915 66.2023 50.0493 66.4116 50.2025C66.7074 50.4189 67.176 50.2521 67.3444 49.9591C67.5491 49.6165 67.3944 49.2513 67.0987 49.0349C66.8894 48.8816 66.6801 48.7238 66.4708 48.5705C66.2797 48.4308 65.9748 48.4578 65.7837 48.5705C65.5608 48.7013 65.4698 48.9087 65.4471 49.1566C65.4152 49.4722 65.3834 49.7923 65.3515 50.1079C65.7747 49.9952 66.1978 49.8824 66.6255 49.7652C66.5163 49.5849 66.489 49.4992 66.448 49.2783C66.3798 48.9177 65.943 48.7148 65.6063 48.805C65.2332 48.9041 65.0694 49.2738 65.1331 49.6345Z" fill="#727272"/>
<path d="M68.1633 57.7494C68.227 58.1236 68.318 58.4843 68.4409 58.8449C68.5819 59.2732 69.0369 59.4536 69.4418 59.2507C69.6921 59.1245 69.8513 58.89 69.915 58.624C69.9469 58.5023 69.9514 58.3716 69.9605 58.2408C69.9605 58.1957 69.9651 58.1507 69.9696 58.1056C69.9605 58.2949 69.8331 58.4167 69.5829 58.4798C69.4691 58.4482 69.3554 58.4167 69.2371 58.3896C69.774 58.6511 70.1926 58.8269 70.8068 58.6917C71.6622 58.5023 71.3027 57.1949 70.4428 57.3888C70.229 57.4384 70.1061 57.3121 69.9241 57.222C69.6056 57.0687 69.2416 57.0912 68.9641 57.3076C68.7548 57.4699 68.6593 57.6953 68.6229 57.9523C68.6092 58.0515 68.6047 58.1462 68.5956 58.2453C68.5865 58.331 68.591 58.3355 68.6001 58.2679C68.5546 58.4212 68.6047 58.358 68.7548 58.0875C69.0869 58.2228 69.4236 58.358 69.7558 58.4933C69.6375 58.1326 69.5465 57.772 69.4782 57.3978C69.4145 57.0371 68.9686 56.8342 68.6365 56.9244C68.2543 57.0191 68.0996 57.3888 68.1633 57.7494Z" fill="#727272"/>
<path d="M69.7512 67.5325C69.7057 67.8752 69.6557 68.2178 69.6102 68.5604C69.5692 68.8625 69.6375 69.16 69.9241 69.3223C70.1607 69.4621 70.5702 69.4486 70.7522 69.2186C70.8523 69.0879 70.9524 68.9797 71.1116 68.9256C70.825 68.7092 70.5338 68.4928 70.2472 68.2719C70.2563 68.5424 70.2608 68.8129 70.2699 69.0834C70.2836 69.5342 70.6931 69.8408 71.1344 69.7371C71.3528 69.6875 71.5348 69.5793 71.7077 69.4441L71.876 69.3133C71.8624 69.2953 71.644 69.3088 71.5939 69.2547C71.5348 69.1555 71.4756 69.0563 71.4165 68.9572C71.4256 68.9797 71.4301 69.0022 71.4392 69.0248C71.7259 69.8408 73.0453 69.4891 72.7541 68.6641C72.5949 68.2178 72.2309 67.9653 71.7486 67.9789C71.553 67.9834 71.3482 68.0465 71.1799 68.1457C71.0434 68.2268 70.916 68.3936 70.7613 68.4297C71.0479 68.6461 71.3391 68.8625 71.6258 69.0834C71.6167 68.8129 71.6121 68.5424 71.603 68.2719C71.5939 67.8571 71.1708 67.4739 70.7386 67.6182C70.3609 67.7489 70.0242 67.9473 69.7785 68.2629C70.1607 68.4838 70.5384 68.7002 70.9205 68.9211C70.966 68.5785 71.0161 68.2358 71.0616 67.8932C71.1116 67.5325 70.9751 67.1674 70.5839 67.0592C70.2745 66.9735 69.8013 67.1674 69.7512 67.5325Z" fill="#727272"/>
<path d="M67.7902 78.7311C67.6947 79.1144 67.5991 79.4976 67.5081 79.8808C67.4217 80.2324 67.6173 80.6201 67.9859 80.7148C68.3135 80.8005 68.6274 80.7373 68.8958 80.5255C69.1097 80.3541 69.187 80.0881 69.3827 79.9213C69.2826 79.9799 69.1825 80.0386 69.0824 80.0972C69.1142 80.0836 69.1461 80.0701 69.1825 80.0566C69.0596 80.0566 68.9413 80.0566 68.8185 80.0566C68.8503 80.0611 68.8822 80.0701 68.9186 80.0746C68.7821 79.9709 68.6456 79.8672 68.5091 79.7635C68.5 79.7094 68.5046 79.723 68.5182 79.8131C68.5501 79.8898 68.5819 79.9664 68.6183 80.0431C68.7093 80.1918 68.8503 80.2955 69.005 80.3632C69.1688 80.4353 69.3508 80.4443 69.5283 80.4082C69.5874 80.4037 69.6466 80.3857 69.7012 80.3632C69.9696 80.2775 69.915 80.2504 69.5374 80.2865C69.4555 80.2054 69.3736 80.1242 69.2917 80.0431C69.3008 80.0566 69.3144 80.0746 69.3235 80.0881C69.2917 79.9754 69.2598 79.8627 69.2325 79.7455C69.2325 79.7635 69.2325 79.7861 69.228 79.8041C69.187 80.6742 70.552 80.6742 70.5929 79.8041C70.6111 79.4344 70.3564 79.1234 70.006 79.0152C69.8422 78.9656 69.6602 78.9611 69.4919 79.0016C69.4327 79.0152 69.2007 79.0603 69.2689 79.0693C69.3827 79.1008 69.4964 79.1324 69.6147 79.1594C69.592 79.1459 69.5738 79.1279 69.551 79.1143C69.6329 79.1955 69.7148 79.2766 69.7967 79.3578C69.7649 79.2947 69.6921 79.0557 69.5783 78.9385C69.3963 78.7582 69.0642 78.677 68.8185 78.7447C68.6183 78.7988 68.4454 78.916 68.3089 79.0648C68.2361 79.1459 68.1724 79.2361 68.1178 79.3307C68.0996 79.3623 68.086 79.3939 68.0678 79.4209C67.9404 79.5922 68.0359 79.5877 68.3544 79.4029C68.5137 79.6824 68.6729 79.9574 68.8321 80.2369C68.9277 79.8537 69.0232 79.4705 69.1142 79.0873C69.3144 78.2442 67.9995 77.8836 67.7902 78.7311Z" fill="#727272"/>
<path d="M66.3434 86.8642C66.4435 86.9408 66.5436 87.0174 66.6437 87.0941C66.9348 87.3195 67.408 87.1392 67.5764 86.8506C67.7811 86.5035 67.6264 86.1473 67.3307 85.9264C67.2306 85.8498 67.1305 85.7731 67.0304 85.6965C66.7392 85.4711 66.266 85.6514 66.0977 85.94C65.8929 86.2871 66.0522 86.6387 66.3434 86.8642Z" fill="#727272"/>
</g>
<g clip-path="url(#clip1_0_1)">
<path d="M35.8183 44.7374C36.3857 40.1054 33.105 36.647 29.6094 33.9798C27.5733 32.4239 25.583 31.1259 24.2561 28.8988C23.5789 27.7564 22.9292 26.4672 22.5494 25.2003C21.8082 22.7332 23.0893 18.8569 26.2601 21.7019C28.0857 23.3422 28.5067 25.4581 29.9022 27.2807C30.6892 28.312 31.8971 28.8632 33.1554 28.2053C36.9393 26.2316 34.011 19.3858 33.1645 16.6653C32.1396 13.3714 31.5997 10.2019 33.3247 7.03235C33.892 5.99215 34.528 4.92083 35.2555 3.98287C35.7268 3.37831 36.3262 2.72485 36.9988 2.30699C38.3897 1.43571 39.227 1.43571 40.7644 1.89802C42.4024 2.39145 42.4161 2.47591 42.7502 4.0051C42.9057 4.7119 42.9698 5.48983 43.0064 6.21886C43.0842 7.76138 42.956 9.31724 42.6312 10.8331C42.0227 13.7092 40.2702 16.2519 39.8859 19.1725C39.6022 21.3196 39.799 28.1431 43.441 27.503C47.71 26.7517 47.4034 20.0927 51.6586 19.2036C55.2 18.4612 56.9296 22.2442 55.4288 24.8402C54.6144 26.2538 53.26 27.3474 51.956 28.312C49.6317 30.0323 46.7903 30.9303 44.5071 32.6684C40.3755 35.8246 41.7481 40.7855 43.4456 44.853C43.7751 45.6398 45.1019 45.2931 44.7679 44.4974C43.6241 41.7546 42.1874 38.3984 43.7339 35.5179C45.166 32.8507 48.9453 31.9172 51.3841 30.3435C54.6784 28.2187 59.4049 24.2179 56.6138 20.0082C54.2804 16.4831 49.7598 17.6611 47.6276 20.6128C46.9825 21.5063 46.4837 22.4887 45.9118 23.4266C45.651 23.8534 45.3902 24.2846 45.0836 24.6846C44.864 24.9425 44.6444 25.1959 44.4248 25.4537C42.6907 25.8271 41.7939 25.3781 41.7344 24.0979C39.9957 20.5061 42.1004 16.8254 43.2809 13.5136C44.1594 11.0509 44.5346 8.42817 44.347 5.82767C44.2189 4.02732 44.0267 1.5913 42.2835 0.515535C40.7507 -0.431314 38.3943 0.111013 36.889 0.848933C34.647 1.95137 33.2743 4.2896 32.1396 6.37C29.225 11.7133 32.1671 16.4208 33.2515 21.8041C33.3933 22.5198 33.7548 24.089 33.5123 24.8847C32.771 25.5426 32.0298 26.1961 31.284 26.854C30.8585 26.325 30.5382 25.7471 30.314 25.1114C29.8839 24.1823 29.4309 23.3155 28.8041 22.4887C27.8158 21.1817 25.949 19.0347 24.041 19.1414C22.188 19.248 21.099 21.1506 20.9023 22.7376C20.6094 25.0847 21.9043 27.5874 23.0756 29.5789C26.3242 35.0956 35.3791 37.1271 34.4457 44.7463C34.345 45.5865 35.7176 45.582 35.8183 44.7374Z" fill="#46A358"/>
<path d="M47.6779 22.573C48.6662 17.7054 46.7994 13.2557 46.4105 8.45031C46.1772 5.57865 47.4354 0.986648 51.4344 2.29357C54.413 3.26709 55.5432 6.71664 55.3419 9.47718C55.1955 11.4953 54.198 17.4165 58.197 16.8653C61.6286 16.3941 63.3993 10.8374 65.0648 8.48143C66.4923 6.46326 69.6448 3.51603 72.4175 4.33841C76.81 5.64088 73.9961 10.7619 71.9737 12.7756C68.565 16.1674 64.9321 19.1679 61.926 22.9464C60.1827 25.138 58.6728 28.7387 62.5391 29.7211C64.0261 30.0989 65.4582 29.5966 66.7989 29.0009C67.8787 28.5209 68.9082 27.9474 70.0566 27.6318C72.1522 27.0539 74.5817 27.5073 73.1954 30.0367C69.9514 35.9623 62.5254 31.5926 57.7348 34.0775C53.6718 36.189 52.7247 40.8566 53.109 44.9507C53.1868 45.7997 54.564 45.8086 54.4817 44.9507C54.2117 42.0968 54.4451 39.0118 56.4766 36.7491C59.1029 33.8241 62.6077 34.891 66.0851 34.8243C69.6357 34.7576 74.2066 33.0862 74.9432 29.2321C75.7485 25.0091 70.7978 25.827 68.2584 26.845C67.1374 27.294 66.0897 27.9919 64.9183 28.3208C63.9895 28.5831 62.5208 28.7253 61.7887 27.8763C61.0795 27.0495 61.6514 25.6581 62.0907 24.9557C63.6967 22.3774 66.1583 20.0259 68.3454 17.9055C71.3606 14.9805 76.5034 11.8776 76.0596 7.10783C75.721 3.45824 72.2528 2.1202 69.0546 3.48935C67.1329 4.31174 65.5452 5.61865 64.2915 7.25008C62.6535 9.37938 61.7796 12.3044 59.8258 14.1803C59.1212 14.856 58.4303 16.2918 56.8563 14.8827C56.1563 14.2559 56.3668 12.5844 56.44 11.7265C56.5361 10.6018 56.7831 9.50385 56.7465 8.3703C56.6871 6.45437 56.0328 4.51177 54.7562 3.02704C52.0567 -0.102451 47.4217 0.0353538 45.6281 3.96056C44.5575 6.30768 45.0287 8.99264 45.4771 11.4287C46.136 15.0249 47.1014 18.5545 46.3556 22.2174C46.1863 23.0576 47.5087 23.4176 47.6779 22.573Z" fill="#46A358"/>
<path d="M47.3714 31.0059C46.7262 35.589 45.6693 40.0787 44.196 44.4796C43.9215 45.2975 45.2484 45.6487 45.5183 44.8352C46.9916 40.4344 48.0485 35.9446 48.6937 31.3615C48.8127 30.5169 47.4903 30.1568 47.3714 31.0059Z" fill="#46A358"/>
<path d="M30.9546 43.9728C30.7761 40.4432 28.2551 38.0605 25.3542 36.2468C23.4737 35.0688 21.4147 34.0864 19.7996 32.5528C19.1041 31.8949 17.8092 30.6191 17.7406 29.5967C17.5073 26.1871 21.7945 28.841 22.7462 29.6278C23.4142 30.1835 24.3888 29.241 23.7162 28.6854C22.22 27.4451 19.5342 25.8315 17.4798 26.765C15.8235 27.5163 16.098 29.3788 16.734 30.7213C19.4107 36.4247 29.2296 37.0781 29.5819 43.9728C29.6231 44.8263 31.0003 44.8307 30.9546 43.9728Z" fill="#46A358"/>
<path d="M61.7339 45.293C63.4451 42.7859 65.7008 40.7366 68.4644 39.3585C70.9809 38.105 74.1014 37.8872 76.3296 36.1135C78.8873 34.0775 79.02 29.0855 74.7877 29.2144C73.9046 29.241 73.9046 30.5746 74.7877 30.548C76.4577 30.7702 77.1349 31.6682 76.8283 33.2374C76.4852 34.1398 75.9041 34.851 75.0851 35.3667C74.0831 36.0557 72.866 36.3713 71.713 36.7269C70.2442 37.1803 68.8121 37.656 67.4532 38.3672C64.6256 39.852 62.3149 42.0302 60.5442 44.6218C60.0546 45.3375 61.2443 46.0043 61.7339 45.293Z" fill="#46A358"/>
<path d="M65.4628 33.5619C59.6474 34.6287 57.5015 40.252 56.1243 45.173C55.8909 46.0043 57.2178 46.3554 57.4466 45.5286C58.7003 41.0522 60.5076 35.8245 65.8289 34.851C66.6936 34.6865 66.3276 33.4018 65.4628 33.5619Z" fill="#46A358"/>
<path d="M34.798 13.2647C34.1163 10.602 34.9673 7.68585 37.1727 5.89884C37.6165 5.52099 38.1198 5.23205 38.6734 5.03201C40.1971 5.34762 40.9063 6.13889 40.801 7.4058C40.8285 8.14372 40.6821 8.87275 40.5036 9.584C40.1422 11.0198 39.5062 12.3845 39.0349 13.7893C37.8224 17.4077 36.0791 23.3244 39.3552 26.405C39.6709 26.7029 40.1605 26.2317 39.8402 25.9338C36.9668 23.2355 38.4401 18.0479 39.4238 14.8161C40.2748 12.0156 42.5855 8.29486 41.0252 5.35207C39.8081 3.05829 37.0171 4.92087 35.8321 6.26336C34.0796 8.25041 33.4894 10.922 34.1346 13.4425C34.2444 13.8604 34.9032 13.6826 34.798 13.2647Z" fill="#46A358"/>
<path d="M49.3023 24.0623C49.6958 23.2132 50.4919 22.013 51.558 21.8707C53.1823 21.6529 54.0196 23.6355 53.1502 24.9469C52.3312 26.1827 50.771 27.0451 49.4258 27.5741C47.1884 28.4498 45.6876 29.6589 44.0633 31.3881C43.7659 31.7038 44.2509 32.1794 44.5483 31.8593C45.5321 30.8058 46.5387 29.7123 47.8198 28.9832C48.8401 28.4009 50.0252 28.1742 51.0501 27.6052C52.2992 26.9073 54.3216 25.4003 54.468 23.88C54.5869 22.6531 53.2555 21.2306 52.011 21.155C50.5102 21.0617 49.2565 22.5553 48.712 23.7289C48.529 24.1112 49.1238 24.4535 49.3023 24.0623Z" fill="#46A358"/>
<path d="M23.6429 24.8358C23.7939 23.6667 24.2469 23.2355 24.9973 23.5511C25.2627 23.5556 25.4823 23.6489 25.6653 23.8312C26.0268 24.0623 26.2647 24.4046 26.4797 24.7647C26.8641 25.4093 27.0425 26.1605 27.3262 26.8451C27.6877 27.7253 28.1635 28.441 28.9825 28.9655C29.3531 29.2055 29.6963 28.6277 29.3303 28.3876C27.317 27.0896 27.8798 23.72 25.3633 22.9021C23.8534 22.4131 22.3343 23.6845 23.0527 25.1692C23.2403 25.5604 23.8305 25.2226 23.6429 24.8358Z" fill="#46A358"/>
<path d="M48.2316 7.58367C47.8747 5.66329 49.9566 4.13411 51.5488 5.53438C52.4273 6.30786 52.7659 7.73036 52.7705 8.84169C52.7796 10.3486 52.0704 11.6956 52.3724 13.207C52.4548 13.6293 53.1182 13.4515 53.0359 13.0292C52.6561 11.131 53.7451 9.31289 53.2555 7.34362C52.9627 6.16561 52.3678 4.85425 51.1142 4.40972C48.8539 3.61401 47.193 5.73887 47.5682 7.75703C47.6505 8.17934 48.3094 8.00152 48.2316 7.58367Z" fill="#46A358"/>
<path d="M47.8885 11.98C49.0049 14.2605 49.5539 16.2609 49.4716 18.7902C49.4578 19.2214 50.1442 19.217 50.1579 18.7902C50.2448 16.1319 49.65 14.0293 48.4833 11.6466C48.2911 11.2599 47.7009 11.5977 47.8885 11.98Z" fill="#46A358"/>
<path d="M65.687 10.0729C66.3505 8.60153 67.6042 7.67246 69.0546 6.97455C69.471 6.76117 69.901 6.5878 70.3494 6.45C72.2849 7.09012 72.7745 7.97474 71.8182 9.11274C71.3606 9.81065 70.6972 10.4374 70.1252 11.0509C67.9473 13.3847 65.5955 15.5451 63.111 17.5633C62.7724 17.8389 63.2574 18.3101 63.596 18.0345C65.8426 16.2119 67.9793 14.2737 69.9743 12.1933C71.173 10.9442 73.4745 9.09051 72.9712 7.1168C71.9692 3.20493 65.9341 7.86805 65.0922 9.73952C64.9183 10.1263 65.5132 10.4641 65.687 10.0729Z" fill="#46A358"/>
<path d="M61.8116 19.9858C59.6199 21.5506 58.2885 23.831 58.0368 26.4582C57.9956 26.885 58.682 26.8805 58.7231 26.4582C58.9519 24.0844 60.1781 21.9729 62.1593 20.5593C62.5116 20.3104 62.1685 19.728 61.8116 19.9858Z" fill="#46A358"/>
<path d="M66.1537 31.1082C66.6021 30.8459 67.0505 30.5703 67.5218 30.3436C67.8787 30.1524 68.2539 30.0057 68.6474 29.9035C69.384 29.6056 69.6311 30.1613 69.384 31.5705C68.899 32.4995 66.2727 32.5351 65.4582 32.4862C63.4222 32.3706 61.505 31.8283 59.4964 32.4284C59.0754 32.5529 59.2539 33.1975 59.6794 33.073C62.0907 32.3484 64.4379 33.4019 66.8721 33.1397C68.1944 32.993 70.0657 32.4017 70.7246 31.1571C71.0907 30.4636 71.0037 29.5479 70.203 29.17C68.8898 28.5521 66.84 29.9213 65.806 30.5303C65.4308 30.757 65.7739 31.3349 66.1537 31.1082Z" fill="#46A358"/>
<path d="M55.9504 33.5886C52.3816 36.4025 51.0821 40.67 50.7207 44.973C50.684 45.3998 51.3704 45.3998 51.407 44.973C51.7547 40.8345 53.0038 36.7626 56.4354 34.0598C56.7786 33.7887 56.289 33.3219 55.9504 33.5886Z" fill="#46A358"/>
<path d="M40.5905 34.722C39.529 36.5091 39.561 38.4561 39.7944 40.4565C39.9911 42.1368 40.2153 43.786 41.4095 45.0929C41.7024 45.413 42.1874 44.9418 41.8945 44.6217C40.7232 43.3415 40.5768 41.5634 40.4212 39.9275C40.2565 38.2249 40.2794 36.5757 41.1853 35.0554C41.405 34.6865 40.8147 34.3531 40.5905 34.722Z" fill="#46A358"/>
<path d="M21.6572 30.3301C19.6715 30.3568 20.4584 32.3883 21.52 33.1173C22.8468 34.0286 24.3567 34.6376 25.766 35.4066C27.4269 36.3135 28.0949 37.8427 29.3715 39.1185C29.678 39.4252 30.163 38.954 29.8565 38.6473C28.5891 37.3804 27.976 35.8645 26.3425 34.9577C25.5189 34.4998 24.6542 34.1131 23.826 33.673C23.3959 33.4463 22.9658 33.2195 22.554 32.9662C22.3893 32.8684 22.22 32.7661 22.0553 32.6683C21.2363 32.366 21.1082 31.8104 21.6618 31.0013C22.0965 30.9924 22.0965 30.3257 21.6572 30.3301Z" fill="#46A358"/>
<path d="M73.3006 33.402C73.3235 34.2911 72.9026 34.7756 72.0286 34.8601C71.6077 35.0245 71.1913 35.1846 70.7704 35.349C70.1435 35.5935 69.5121 35.838 68.8853 36.0825C67.4211 36.6515 65.9524 37.225 64.4883 37.794C64.081 37.9495 64.2595 38.5986 64.6713 38.4385C66.3459 37.7851 68.0205 37.1361 69.6951 36.4826C70.9351 35.9981 72.5182 35.6513 73.6209 34.8956C74.5772 34.2377 74.6046 32.873 73.2961 32.7352C72.8614 32.6863 72.866 33.3576 73.3006 33.402Z" fill="#46A358"/>
<path d="M62.9143 38.7183C61.0749 40.4076 59.6245 42.3902 58.5996 44.6395C58.4212 45.0262 59.0114 45.3685 59.1944 44.9773C60.1965 42.7814 61.6011 40.8432 63.4039 39.194C63.7196 38.8962 63.2346 38.425 62.9143 38.7183Z" fill="#46A358"/>
<path d="M31.0004 41.6347C31.5265 42.3904 31.8651 43.2038 32.0253 44.1018C32.0985 44.5241 32.7619 44.3463 32.6887 43.924C32.5194 42.9771 32.1488 42.0925 31.5952 41.2968C31.3481 40.9456 30.7533 41.279 31.0004 41.6347Z" fill="#46A358"/>
</g>
<defs>
<clipPath id="clip0_0_1">
<rect width="55.8088" height="48" fill="white" transform="translate(19.2794 45)"/>
</clipPath>
<clipPath id="clip1_0_1">
<rect width="61.8971" height="46" fill="white" transform="translate(16.2353)"/>
</clipPath>
</defs>
</svg>
